<?xml version="1.0" encoding="UTF-8" standalone="no"?>
<!-- Created with Inkscape (http://www.inkscape.org/) -->

<svg
   width="176.85715mm"
   height="54.057571mm"
   viewBox="0 0 176.85715 54.057571"
   version="1.1"
   id="svg5"
   xml:space="preserve"
   xmlns="http://www.w3.org/2000/svg"
   xmlns:svg="http://www.w3.org/2000/svg"><defs
     id="defs2" /><g
     id="layer1"
     transform="translate(-16.310822,-156.21406)"><path
       style="fill:#1fe4f7;fill-opacity:1;stroke:none;stroke-width:0.0962865"
       d="m 122.44054,193.39929 c 0.65243,-0.6099 2.045,-1.43411 2.1001,-2.45032 0.0576,-1.06042 -1.29678,-2.39693 -1.92542,-3.25156 -1.94562,-2.64491 -3.74885,-5.62584 -5.95263,-8.06886 -0.55809,0.52172 -1.6648,1.17866 -1.66515,2.07481 -4.6e-4,1.06825 1.51348,2.56488 2.15151,3.43517 1.81013,2.46948 4.68379,5.3828 5.2916,8.26077"
       id="path4998-1-7-7-0-5" /><path
       style="fill:#ee39cf;stroke:none;stroke-width:0.226336"
       d="m 108.58023,210.00901 c 2.20315,0 6.00039,0.70798 7.89799,-0.61971 2.44238,-1.70907 2.16513,-8.21192 2.54288,-10.92343 0.14508,-1.04046 0.10638,-2.74364 0.97324,-3.48489 0.93953,-0.80326 3.26513,-0.36281 4.4294,-0.36281 2.67461,0 8.55934,1.00877 10.54295,-1.18261 1.07804,-1.19097 1.19483,-3.62137 1.22651,-5.1548 h -16.52251 c -1.79032,0 -4.921,-0.40876 -6.17852,1.18012 -1.18079,1.49177 -1.11764,4.25013 -1.38586,6.06263 -0.73763,4.98278 -0.61268,10.33268 -3.52608,14.4855"
       id="path5010-5-0-5-9" /><path
       style="fill:#ee39cf;stroke:none;stroke-width:0.226336"
       d="m 58.354926,188.28077 c 1.742566,4.60502 0.255082,9.39157 -0.423247,14.25916 -0.235612,1.69095 -1.138238,4.73087 -0.24942,6.31273 1.217237,2.16626 7.170769,1.15635 9.273432,1.15635 h 8.827096 c 1.247787,-0.002 2.833047,0.0253 3.758533,-0.95695 1.057219,-1.12263 1.074418,-3.03358 1.282193,-4.47511 0.510614,-3.54443 1.00063,-7.09156 1.493588,-10.63779 0.183337,-1.31908 0.741033,-3.53491 -0.138515,-4.70145 -1.179432,-1.56352 -4.690809,-0.95695 -6.395799,-0.95695 -0.72495,3.8914 -1.099991,7.85409 -1.679637,11.76947 -0.194874,1.3166 -0.01041,3.38078 -1.489061,3.84771 0.07263,-3.51998 0.917111,-7.15267 1.41935,-10.63779 0.16296,-1.13054 0.869355,-3.22822 0.02855,-4.20237 -1.178526,-1.36526 -4.597331,-0.77702 -6.200917,-0.77702 -0.724958,3.89049 -1.128286,7.85227 -1.680324,11.76947 -0.185364,1.31524 -0.01585,3.38259 -1.488383,3.84771 0.155043,-3.61119 0.92413,-7.28892 1.453307,-10.86412 0.168843,-1.13961 0.865956,-3.24973 -0.167266,-4.13561 -1.601552,-1.37318 -5.647302,-0.61745 -7.623446,-0.61745"
       id="path5006-5-2-2-7" /><g
       id="g16970"><path
         style="fill:#1fe4f7;fill-opacity:1;stroke:none;stroke-width:0.226336"
         d="m 88.457629,188.37673 c -1.01059,0.13446 -2.107865,0.12335 -2.891438,0.87253 -1.109722,1.06061 -1.238513,3.02837 -1.438363,4.46356 l -1.328597,9.50611 c -0.213658,1.559 -1.10022,4.45157 -0.05835,5.83313 1.005389,1.33289 3.586524,0.95695 5.037785,0.95695 4.754863,0 10.01127,0.63396 14.711814,-0.0681 2.21492,-0.3309 2.72078,-2.05852 3.07273,-4.00591 0.67765,-3.75107 1.01037,-7.55691 1.62464,-11.3168 0.22793,-1.39513 0.8628,-4.15801 -0.0808,-5.38045 -0.89108,-1.15409 -3.52744,-0.9565 -4.8429,-0.95695 -4.504538,-0.002 -9.341777,-0.49726 -13.806471,0.096 m 11.317102,6.24142 c -0.04479,2.1769 -0.491144,4.41016 -0.810053,6.56375 -0.117018,0.78968 -0.08578,1.99401 -0.842875,2.48335 -1.65836,1.0717 -6.11513,0.23268 -8.0795,0.23268 0.173377,-2.19795 0.646873,-4.37236 0.89403,-6.56375 0.08578,-0.76071 0.08035,-1.99922 0.788328,-2.48336 1.579146,-1.07984 6.145459,-0.23267 8.05007,-0.23267"
         id="path5008-3-6-9-4" /><path
         style="fill:#ee39cf;fill-opacity:1;stroke:none;stroke-width:0.226336"
         d="m 91.202775,187.59838 c -1.01059,0.13445 -2.107868,0.12335 -2.891442,0.87253 -1.109722,1.06061 -1.238513,3.02837 -1.438363,4.46356 l -1.328596,9.50611 c -0.213658,1.559 -1.10022,4.45157 -0.05836,5.83312 1.005388,1.3329 3.586523,0.95696 5.037788,0.95696 4.754857,0 10.011248,0.63396 14.711788,-0.0681 2.21493,-0.3309 2.72079,-2.05852 3.07274,-4.00592 0.67765,-3.75106 1.01037,-7.5569 1.62464,-11.31679 0.22792,-1.39514 0.8628,-4.15801 -0.0808,-5.38046 -0.89108,-1.15408 -3.52744,-0.95649 -4.8429,-0.95695 -4.50454,-0.002 -9.341767,-0.49725 -13.806455,0.096 m 11.317085,6.24143 c -0.0448,2.1769 -0.49114,4.41015 -0.81005,6.56374 -0.11702,0.78969 -0.0858,1.99402 -0.84288,2.48335 -1.658359,1.07171 -6.115116,0.23268 -8.079486,0.23268 0.173377,-2.19794 0.646873,-4.37235 0.89403,-6.56374 0.08578,-0.76071 0.08035,-1.99923 0.788328,-2.48336 1.579143,-1.07984 6.145448,-0.23267 8.050058,-0.23267"
         id="path5008-3-6-9-4-0" /></g><g
       id="g16974"><path
         style="fill:#1fe4f7;fill-opacity:1;stroke:none;stroke-width:0.226336"
         d="m 92.359658,165.35217 c -1.069891,0.14101 -2.257249,0.0813 -3.079523,0.89856 -0.992934,0.98683 -1.107688,2.67665 -1.313657,3.98487 -0.497256,3.15875 -0.808469,6.34555 -1.320897,9.5061 -0.273188,1.68395 -1.266117,5.03145 -0.0063,6.46574 1.040697,1.18464 3.641063,0.77701 5.040952,0.77701 4.685372,0 9.852397,0.61654 14.485487,-0.0681 2.38762,-0.35285 2.80162,-1.84857 3.15742,-3.96322 0.30951,-1.84011 0.57387,-3.68911 0.8274,-5.53988 0.25352,-1.85078 0.49621,-3.70334 0.76239,-5.55058 0.21547,-1.49585 1.0436,-4.29781 0.038,-5.63794 -0.86687,-1.15544 -3.49124,-0.96804 -4.7852,-0.96849 -4.50657,-0.002 -9.339071,-0.49228 -13.806487,0.096 m 11.317197,6.24141 c -0.27703,2.19093 -0.6274,4.37621 -0.93476,6.56375 -0.10321,0.73332 -0.0991,2.00737 -0.76593,2.48335 -1.51848,1.0846 -6.172628,0.23268 -8.031754,0.23268 l 0.810062,-6.79008 0.675608,-2.25703 2.362042,-0.23267 h 5.884732"
         id="path5004-6-6-2-8" /><path
         style="fill:#ee39cf;fill-opacity:1;stroke:none;stroke-width:0.226336"
         d="m 95.104798,164.57382 c -1.069891,0.14101 -2.257249,0.0813 -3.079518,0.89856 -0.992933,0.98683 -1.107688,2.67664 -1.313657,3.98487 -0.497255,3.15875 -0.808469,6.34555 -1.320896,9.5061 -0.273188,1.68395 -1.266122,5.03145 -0.0063,6.46574 1.040698,1.18464 3.641058,0.777 5.040947,0.777 4.685358,0 9.852386,0.61655 14.485476,-0.0681 2.38762,-0.35286 3.52193,-2.05345 3.87773,-4.16811 0.30952,-1.84011 -1.54272,-0.10537 -3.58626,-1.75869 -2.84009,-2.29775 4.81185,-1.76087 4.69786,-6.09096 0.21547,-1.49585 0.80148,-7.33373 -0.20411,-8.67386 -0.86687,-1.15545 -3.49124,-0.96804 -4.7852,-0.9685 -4.50657,-0.002 -9.33907,-0.49228 -13.806473,0.096 m 11.317193,6.24142 c -0.27704,2.19093 -0.62741,4.37621 -0.93477,6.56375 -0.10321,0.73332 -0.0991,2.00737 -0.76593,2.48335 -1.51848,1.0846 -6.172629,0.23267 -8.031748,0.23267 l 0.810057,-6.79008 0.675606,-2.25703 2.362045,-0.23267 h 5.88474"
         id="path5004-6-6-2-8-6" /></g><path
       style="fill:#ee39cf;stroke:none;stroke-width:0.226336"
       d="m 49.582188,180.87336 c 0.142591,-1.86841 1.671943,-1.58436 3.168702,-1.58436 3.144257,0 6.370448,0.20959 9.506105,-0.0203 1.015116,-0.0744 2.158112,-0.33272 2.845041,-1.14142 0.747361,-0.87976 0.877052,-2.26493 1.032092,-3.36493 0.333619,-2.36656 1.293735,-5.31776 0.79806,-7.69428 -0.405593,-1.94514 -3.106233,-1.80933 -4.675193,-1.81183 H 50.713867 c -1.609022,0 -4.012255,-0.21365 -5.422099,0.68105 -1.487256,0.94404 -1.503776,3.18409 -1.764741,4.75101 -0.715905,4.29722 -2.374038,9.92619 -1.822915,14.25894 0.272967,2.14634 2.587246,2.03725 4.256703,2.03725 h 13.58015 c 1.599968,0 4.421923,0.53211 4.904019,-1.58458 0.279524,-1.22696 -0.104568,-3.60168 -1.295094,-4.22818 -1.175136,-0.61835 -3.001214,-0.29831 -4.287933,-0.29831 h -9.279769 m 9.506105,-9.2798 c -0.191253,2.47612 -6.580714,1.35803 -8.600761,1.35803 0.784479,-2.42112 6.4216,-1.35803 8.600761,-1.35803"
       id="path5002-2-1-8-4" /><path
       style="fill:#ee39cf;stroke:none;stroke-width:0.226336"
       d="m 163.80651,188.28075 h -9.73244 c -1.43837,4.6e-4 -3.6791,-0.12878 -4.96966,0.55611 -2.38264,1.26431 -2.06463,6.40418 -2.44375,8.72366 -0.44904,2.74839 -0.99294,5.59775 -1.1817,8.37444 -0.0672,0.98907 -0.36644,2.19839 0.25236,3.07951 0.95945,1.36572 3.5193,0.99452 4.94771,0.99452 h 11.9958 c 1.52731,0 3.72051,0.26277 4.88455,-0.96849 1.38563,-1.46553 1.26838,-4.61341 1.51668,-6.50059 0.68489,-5.2098 1.54089,-10.39968 2.16332,-15.61718 0.32592,-2.71331 0.19238,-5.44858 2.5259,-7.24274 -2.18414,-0.91689 -6.98381,-0.41782 -8.45296,1.59408 -1.20637,1.65225 -1.42002,5.00655 -1.50581,7.00668 m -0.90534,6.3374 c -0.39088,2.09745 -0.61518,4.22478 -0.90534,6.33741 -0.1109,0.80688 -0.11249,2.00307 -0.77724,2.57955 -1.40306,1.21655 -6.23102,0.36282 -8.04986,0.36282 l 0.81006,-6.56375 0.71273,-2.48335 2.32492,-0.23268 h 5.88473"
       id="path5000-9-8-9-5" /><path
       style="fill:#ee39cf;stroke:none;stroke-width:0.226336"
       d="m 133.70384,210.00899 c 2.262,0 6.26407,0.76117 8.12365,-0.77632 1.94061,-1.60427 1.74641,-5.7521 2.06147,-8.05077 0.97483,-7.11397 2.79435,-14.55136 2.94236,-21.72824 -1.93494,0 -5.11881,-0.60183 -6.66944,0.8259 -1.84848,1.70182 -1.63595,6.34261 -1.96074,8.6802 -0.9221,6.63255 -0.64416,15.55697 -4.4973,21.04924"
       id="path4998-1-7-7-0" /><path
       style="fill:#ee39cf;stroke:none;stroke-width:0.226336"
       d="m 74.159395,186.96036 c 2.262,0 6.26407,0.76116 8.123645,-0.77634 1.940604,-1.60426 1.746408,-5.75209 2.061468,-8.05076 0.974828,-7.11397 2.794118,-14.55136 2.942371,-21.72824 -1.889458,0 -4.978036,-0.57059 -6.515309,0.77633 -1.92046,1.68258 -1.688465,6.15339 -2.024122,8.50344 -0.963059,6.74005 -0.672896,15.71133 -4.588053,21.27557"
       id="path4996-2-9-3-3" /><path
       style="fill:#ee39cf;stroke:none;stroke-width:0.226336"
       d="m 65.455995,187.13923 c 2.341445,0 6.38765,0.76365 8.32599,-0.82658 1.816119,-1.48974 1.636409,-5.62512 1.95441,-7.77419 1.079622,-7.29322 1.727169,-14.70775 3.073414,-21.95457 -1.852332,0 -4.948606,-0.57535 -6.515303,0.61744 -1.95441,1.48794 -1.804123,6.20047 -2.114882,8.43599 -0.566518,4.0745 -1.133037,8.14968 -1.719926,12.22214 -0.534153,3.70648 -0.636683,6.33265 -3.003703,9.27977"
       id="path4994-7-2-6-6" /><path
       style="fill:#ee39cf;stroke:none;stroke-width:0.226336"
       d="m 19.026851,156.42908 c 1.852131,2.75633 0.597365,6.35529 0.130983,9.50611 -1.01376,6.84892 -2.70424,14.13218 -2.847013,21.04924 1.852376,0 4.418938,0.43071 6.106879,-0.48979 1.213271,-0.6618 1.504321,-2.10538 1.71637,-3.35792 0.445453,-2.63116 0.744239,-5.2829 1.13483,-7.92175 0.132995,-0.89857 0.04613,-2.57593 0.716032,-3.25856 0.539523,-0.54955 1.627039,-0.36283 2.321684,-0.36283 h 5.884735 l -2.037022,15.39085 c 1.933584,0 4.939102,0.55135 6.539069,-0.77633 1.234665,-1.0244 1.260688,-2.9616 1.477973,-4.4294 0.535281,-3.61594 1.015337,-7.24297 1.518483,-10.86411 0.175184,-1.25934 0.676745,-3.60757 -0.165901,-4.70145 -0.876373,-1.13734 -2.897096,-0.95695 -4.163903,-0.95695 H 26.72227 c 0.161762,-2.0497 1.738119,-6.08459 0.484812,-7.88916 -1.266579,-1.82359 -6.221838,-0.93795 -8.180231,-0.93795"
       id="path4958-0-0-1-1" /><g
       id="g16755"><path
         style="fill:#ee39cf;fill-opacity:1;stroke:none;stroke-width:0.226336"
         d="m 171.27558,203.89794 -0.90535,6.11106 c 1.98271,0 5.42301,0.64596 6.92815,-0.95695 1.19505,-1.27381 1.14299,-3.53061 1.44628,-5.15411 z"
         id="path5014-6-3-9-6" /><path
         id="path5280-3-3"
         style="fill:#1fe4f7;fill-opacity:1;stroke:none;stroke-width:0.226336"
         d="m 181.31034,188.40854 c -0.16834,-0.0369 -0.30588,-0.0663 -0.39773,-0.0852 -0.0955,-0.0196 -0.1463,-0.0293 -0.1463,-0.0293 l -1.61619,10.99382 c 0,0 0.0223,0.002 0.0252,0.002 l 7.9e-4,-0.011 13.99187,-3.72301 c 0,0 -7.14004,-5.85962 -11.85774,-7.14692 z" /><path
         id="path5368-1-2"
         style="fill:#ee39cf;fill-opacity:1;stroke:none;stroke-width:0.226336"
         d="m 178.19696,188.02386 c -1.4775,0.0106 -2.93578,0.31383 -3.93166,1.09497 -1.1362,0.89176 -1.20883,2.60357 -1.42384,3.91496 -0.507,3.08314 -0.76727,6.20686 -1.3399,9.27982 h 7.46926 l 0.20457,-3.02413 c -0.003,-2.4e-4 -0.0252,-0.002 -0.0252,-0.002 l 1.61618,-10.99381 c 0,0 0.0508,0.01 0.1463,0.0293 0.0919,0.0189 0.22939,0.0483 0.39773,0.0852 -0.17988,-0.049 -0.35664,-0.0927 -0.52895,-0.12796 -0.80461,-0.1644 -1.69793,-0.26311 -2.58443,-0.25673 z" /></g></g></svg>
